# xmcd
#
# Track frame offsets:
#	150
#	10188
#	22035
#	35030
#	47684
#	67407
#	80281
#	100255
#	115737
#	132759
#	146933
#	156848
#
# Disc length: 2222 seconds
#
# Revision: 0
# Processed by: cddbd v1.4PL0 Copyright (c) Steve Scherf et al.
# Submitted via: dBpowerAMP V4.0
#
DISCID=a608ac0c
DTITLE=Sid Selvidge - A Little Bit of Rain
DYEAR=2003
DGENRE=Western
TTITLE0=A Little Bit of Rain
TTITLE1=Hobo Bill
TTITLE2=Mama You Don't Mean me no Good
TTITLE3=Long Tall Mama
TTITLE4=Do I Ever Cross Your Mind-
TTITLE5=Every Natural Thing
TTITLE6=The River
TTITLE7=Real Thing (Full Time Lover)
TTITLE8=Swannanoa Tunnel
TTITLE9=Long Black Veil
TTITLE10=Pickin' Petals
TTITLE11=Arkansas Girl
EXTD=
EXTT0=
EXTT1=
EXTT2=
EXTT3=
EXTT4=
EXTT5=
EXTT6=
EXTT7=
EXTT8=
EXTT9=
EXTT10=
EXTT11=
PLAYORDER=
